<svg width="44" height="40" viewBox="0 0 44 40" fill="none" xmlns="http://www.w3.org/2000/svg">
<path fill-rule="evenodd" clip-rule="evenodd" d="M42.6723 5.47234C43.0298 5.47234 43.217 5.65957 43.3957 5.83829C43.5745 6.01702 43.5745 6.38297 43.5745 6.38297L39.9404 20.9021C39.9404 21.2596 39.583 21.6255 39.217 21.6255L12.7064 25.2596C13.4383 26.5362 14.8851 27.2596 16.3404 27.2596H37.0383C37.583 27.2596 37.9489 27.6255 37.9489 28.1702C37.9489 28.7149 37.583 29.0808 37.0383 29.0808H16.1617C13.2596 29.0808 10.5362 26.9021 9.99149 24L5.63404 1.8468H0.910638C0.365957 1.8468 0 1.48085 0 0.936166C0 0.391485 0.365957 0.0255276 0.902128 0.0340383H6.34894C6.71489 0.0340383 7.25957 0.391485 7.25957 0.757443L8.17021 5.47234H42.6723ZM11.7957 23.4468L38.3064 20L41.3872 7.10638H8.52766L11.7957 23.4468Z" fill="#DADADA"/>
<path fill-rule="evenodd" clip-rule="evenodd" d="M10.8937 35.4298C10.8937 32.8936 12.8852 30.8936 15.4298 30.8936C17.9745 30.8936 19.9745 32.8936 19.966 35.4298C19.966 37.966 17.9745 39.966 15.4298 39.966C12.8937 39.966 10.8937 37.9745 10.8937 35.4298ZM12.7064 35.4298C12.7064 36.8851 13.9745 38.1532 15.4298 38.1532C16.8852 38.1532 18.1533 36.8851 18.1533 35.4298C18.1533 33.9745 16.8852 32.7064 15.4298 32.7064C13.9745 32.7064 12.7064 33.9745 12.7064 35.4298Z" fill="#DADADA"/>
<path fill-rule="evenodd" clip-rule="evenodd" d="M29.0553 35.4298C29.0553 32.8936 31.0468 30.8936 33.5915 30.8936C36.1276 30.8936 38.1276 32.8936 38.1276 35.4298C38.1276 37.966 36.1361 39.966 33.5915 39.966C31.0553 39.966 29.0553 37.9745 29.0553 35.4298ZM30.8681 35.4298C30.8681 36.8851 32.1361 38.1532 33.5915 38.1532C35.0383 38.1532 36.3149 36.8851 36.3149 35.4298C36.3149 33.9745 35.0468 32.7064 33.5915 32.7064C32.1361 32.7064 30.8681 33.9745 30.8681 35.4298Z" fill="#DADADA"/>
</svg>
